<svg xmlns="http://www.w3.org/2000/svg" xmlns:xlink="http://www.w3.org/1999/xlink" width="320" zoomAndPan="magnify" viewBox="0 0 240 239.999995" height="320" preserveAspectRatio="xMidYMid meet" version="1.0"><defs><clipPath id="d851a5ed23"><path d="M 38.390625 5.203125 L 201.890625 5.203125 L 201.890625 234.703125 L 38.390625 234.703125 Z M 38.390625 5.203125 " clip-rule="nonzero"/></clipPath><clipPath id="5f3137a378"><path d="M 39 6 L 201.890625 6 L 201.890625 234 L 39 234 Z M 39 6 " clip-rule="nonzero"/></clipPath></defs><g clip-path="url(#d851a5ed23)"><path stroke-linecap="butt" transform="matrix(0.751346, 0, 0, 0.749732, 38.391094, 5.204736)" fill="none" stroke-linejoin="miter" d="M 196.235678 113.470692 C 202.068957 110.136167 207.117188 106.983999 210.886463 102.399027 C 218.674567 92.895631 218.362627 81.417571 212.144622 70.846085 C 210.418553 67.902325 209.098007 65.880769 208.188182 64.781418 C 194.078092 47.75971 177.58686 32.983597 158.714486 20.453078 C 147.879767 13.263008 136.951467 7.938189 125.919186 4.48904 C 112.453773 0.279202 98.593235 0.477189 84.327176 5.072581 C 63.312813 11.845835 44.362453 22.782035 26.301123 36.0003 C 12.383397 46.196652 -1.965847 59.883835 1.314723 79.151136 C 3.503503 92.009898 13.558371 101.560186 24.174732 107.796789 C 24.408687 107.932254 24.564657 108.125032 24.647841 108.380331 C 24.725826 108.635631 24.715428 108.88572 24.606249 109.130599 C 20.561426 118.2276 19.396849 128.142601 25.458885 136.973882 C 26.566272 138.594253 27.335724 139.719655 27.756843 140.350089 C 27.860823 140.511605 27.902415 140.688751 27.87642 140.876318 C 27.845226 141.063885 27.762042 141.214981 27.61647 141.334816 C 27.346122 141.569274 27.018585 141.824574 26.633859 142.100714 C 17.067697 149.092796 17.228866 163.34268 25.266522 171.507056 C 25.531671 171.783196 25.687641 172.106228 25.729233 172.486572 C 25.776024 172.861707 25.698039 173.21079 25.500477 173.539032 C 20.441849 181.734669 16.74016 191.467313 21.705206 200.647677 C 22.209509 201.590723 23.051747 203.044367 24.242319 205.0034 C 24.491871 205.425426 24.637443 205.878713 24.668637 206.368472 C 24.694632 206.85823 24.611448 207.327148 24.413886 207.780434 C 22.72421 211.573457 21.429659 215.059077 20.530232 218.232086 C 16.812946 231.320096 20.805779 240.880804 32.51393 246.919421 C 33.044228 247.190351 33.319775 247.622797 33.335372 248.221969 C 33.725297 261.091151 39.475392 271.610535 51.318717 276.758208 C 51.500682 276.825941 51.687846 276.878043 51.880209 276.909304 L 57.328763 277.737725 C 57.557519 277.768986 57.755081 277.86798 57.921449 278.029496 C 58.082618 278.191012 58.186598 278.383789 58.222991 278.613038 C 60.432566 291.268602 71.048927 302.194381 84.753494 299.995679 C 87.748119 299.511131 90.737545 297.567728 93.222667 296.702835 C 93.711373 296.536109 94.210477 296.504848 94.714781 296.614262 C 95.219084 296.723676 95.660999 296.952925 96.035327 297.307218 C 104.275744 305.10688 115.952701 307.435837 125.357694 300.261399 C 126.179136 299.636175 127.551672 298.557665 129.480502 297.025867 C 129.735253 296.82267 130.026397 296.702835 130.353934 296.666364 C 130.681471 296.629893 130.993411 296.681995 131.289754 296.82267 C 133.348559 297.786556 135.251393 298.536824 136.998258 299.078684 C 151.581456 303.575083 165.379605 296.609052 168.145474 281.494276 C 168.27025 280.790899 168.660175 280.2803 169.31005 279.962478 C 180.456709 274.444882 186.128819 265.191575 186.331581 252.202558 C 186.33678 251.467921 186.659118 250.91564 187.293396 250.550927 C 199.115925 243.725571 203.379106 233.701155 199.266696 220.368266 C 198.440054 217.705856 197.072717 214.142083 195.169883 209.676946 C 194.421226 207.92111 194.478415 206.259058 195.351848 204.690789 C 200.197317 195.937661 200.311695 187.549247 195.694982 179.515126 C 193.916923 176.41506 191.140657 173.611975 189.440583 171.251756 C 189.305409 171.069399 189.243021 170.871412 189.24822 170.652584 C 189.253419 170.428545 189.321006 170.235768 189.461379 170.063832 C 194.790356 163.33226 195.585803 155.86605 191.85292 147.665203 C 191.307025 146.487699 190.537573 145.242462 189.534165 143.934703 C 189.310608 143.648142 189.310608 143.356371 189.534165 143.069811 C 190.230831 142.178867 190.781926 141.491121 191.187448 141.011783 C 197.431448 133.43616 198.939159 124.698662 195.715778 114.794081 C 195.637793 114.538782 195.642992 114.288692 195.741773 114.038603 C 195.840554 113.793724 196.001723 113.600947 196.235678 113.470692 " stroke="#808080" stroke-width="1.034" stroke-opacity="1" stroke-miterlimit="4"/></g><path stroke-linecap="butt" transform="matrix(0.751346, 0, 0, 0.749732, 38.391094, 5.204736)" fill="none" stroke-linejoin="miter" d="M 195.923738 100.413943 C 211.380369 91.342993 205.911019 79.057353 196.630802 68.527548 C 178.647457 48.134844 157.258766 30.691111 132.605102 19.020274 C 122.784188 14.37278 112.661733 12.335594 102.237735 12.913925 C 94.288462 13.356792 84.35837 16.331813 72.442259 21.833779 C 55.124386 29.831429 39.631362 39.558863 25.968387 51.005662 C 23.098538 53.423193 18.133492 57.89875 16.287847 60.84251 C 9.778697 71.200378 10.818497 80.563099 19.396849 88.925462 C 19.786774 89.305807 20.233889 89.4048 20.743391 89.217233 C 42.948325 81.042437 65.558781 77.38488 89.500182 76.85344 C 101.551467 76.58772 112.022256 76.84823 120.90215 77.64018 C 142.540393 79.562742 163.305204 84.877141 183.191384 93.588587 C 187.548147 95.490308 191.405806 97.741113 194.759162 100.341 C 195.128291 100.627561 195.518216 100.653612 195.923738 100.413943 " stroke="#808080" stroke-width="1.034" stroke-opacity="1" stroke-miterlimit="4"/><path stroke-linecap="butt" transform="matrix(0.751346, 0, 0, 0.749732, 38.391094, 5.204736)" fill="none" stroke-linejoin="miter" d="M 96.669605 54.209932 C 96.602018 54.16825 96.53963 54.110938 96.498038 54.037996 C 96.102914 53.433613 96.295277 52.709396 97.069928 51.870554 C 97.236296 51.688198 97.31948 51.47458 97.324679 51.2297 C 97.329878 50.984821 97.257092 50.765993 97.101122 50.573216 C 95.479034 48.624603 94.127293 47.436678 93.056299 47.014653 C 92.562394 46.821875 92.058091 46.780194 91.538191 46.894818 C 91.018291 47.004232 90.576376 47.249111 90.207246 47.629456 C 88.41879 49.447814 87.27501 51.49021 86.786304 53.756645 C 86.729115 54.043206 86.723916 54.329767 86.770707 54.621537 C 86.822697 54.908098 86.926677 55.179028 87.082647 55.423908 C 87.238617 55.673997 87.436179 55.882405 87.675333 56.054341 C 87.914487 56.221067 88.174437 56.340902 88.460382 56.408634 L 89.635356 56.689985 C 90.285231 56.841081 90.810331 57.174533 91.221052 57.695553 C 95.375054 62.905748 99.929379 64.244768 106.381339 66.474731 C 107.078005 66.719611 107.779871 66.724821 108.481736 66.485152 C 113.789916 64.703265 117.060088 63.353825 118.29745 62.44204 C 120.792971 60.587211 123.454859 58.294725 126.272718 55.569793 C 126.699036 55.158188 126.974583 54.663219 127.109757 54.084887 C 127.239732 53.506556 127.203339 52.943855 126.995379 52.386364 C 126.288315 50.510693 124.91058 48.765278 122.851775 47.155328 C 122.524238 46.889608 122.155109 46.832296 121.749587 46.983391 C 119.732375 47.75971 115.90591 50.458592 118.146679 52.990746 C 118.261057 53.121001 118.307848 53.272097 118.287052 53.444033 C 118.266256 53.61597 118.183072 53.746225 118.0375 53.845218 L 111.673923 58.247833 C 111.491958 58.372878 111.304793 58.383298 111.107231 58.279094 C 110.909669 58.174891 110.810888 58.013375 110.810888 57.794546 L 110.587331 44.664854 C 110.576933 44.446026 110.654918 44.263669 110.816087 44.112574 C 110.977256 43.961478 111.169619 43.893746 111.393177 43.909376 C 113.337603 44.065682 114.819318 43.893746 115.848721 43.388357 C 116.150263 43.247681 116.410213 43.049694 116.63377 42.794394 C 116.862526 42.544305 117.034093 42.252534 117.15367 41.919082 C 117.273247 41.590839 117.330436 41.246966 117.330436 40.882253 C 117.325237 40.522749 117.268048 40.168456 117.143272 39.819373 C 116.519392 37.985384 113.368797 38.027066 111.330789 37.823868 C 110.961659 37.792607 110.738102 37.59462 110.654918 37.235116 C 110.571734 36.880823 110.680913 36.604683 110.992853 36.411905 C 115.053273 33.806808 116.820934 30.519175 116.301034 26.538586 C 115.032477 16.743419 100.262115 16.644425 98.494454 26.074878 C 97.699007 30.274295 99.388683 33.733865 103.563481 36.453587 C 103.896217 36.677625 104.015794 36.979817 103.922212 37.370581 C 103.82863 37.761346 103.584277 37.974964 103.183954 38.006225 C 101.041965 38.214633 99.778608 38.350098 99.399081 38.40741 C 98.764802 38.490773 98.218907 38.761703 97.766594 39.220201 C 97.314281 39.673488 97.043933 40.220558 96.960749 40.856202 C 96.451247 44.446026 100.693632 44.091733 103.012387 43.919797 C 103.183954 43.904166 103.334725 43.961478 103.4647 44.081313 C 103.589476 44.201147 103.657063 44.347033 103.662262 44.524179 L 103.885819 57.586139 C 103.891018 57.763285 103.813033 57.89354 103.662262 57.987324 C 103.511491 58.075897 103.36072 58.075897 103.20475 57.987324 L 96.669605 54.209932 " stroke="#808080" stroke-width="1.034" stroke-opacity="1" stroke-miterlimit="4"/><path stroke-linecap="butt" transform="matrix(0.751346, 0, 0, 0.749732, 38.391094, 5.204736)" fill="none" stroke-linejoin="miter" d="M 109.422755 27.830714 C 109.422755 27.554574 109.370765 27.283643 109.261586 27.028344 C 109.157606 26.773044 109.001636 26.543796 108.804074 26.345808 C 108.611711 26.147821 108.382955 25.996725 108.123005 25.887311 C 107.868254 25.783107 107.597906 25.731005 107.31716 25.731005 C 107.041612 25.731005 106.771264 25.783107 106.516513 25.887311 C 106.256563 25.996725 106.027807 26.147821 105.830245 26.345808 C 105.632683 26.543796 105.481912 26.773044 105.377932 27.028344 C 105.268753 27.283643 105.216763 27.554574 105.216763 27.830714 C 105.216763 28.112064 105.268753 28.382995 105.377932 28.638294 C 105.481912 28.893594 105.632683 29.122842 105.830245 29.32083 C 106.027807 29.518817 106.256563 29.669913 106.516513 29.779327 C 106.771264 29.883531 107.041612 29.935633 107.31716 29.935633 C 107.597906 29.935633 107.868254 29.883531 108.123005 29.779327 C 108.382955 29.669913 108.611711 29.518817 108.804074 29.32083 C 109.001636 29.122842 109.157606 28.893594 109.261586 28.638294 C 109.370765 28.382995 109.422755 28.112064 109.422755 27.830714 " stroke="#808080" stroke-width="1.034" stroke-opacity="1" stroke-miterlimit="4"/><path stroke-linecap="butt" transform="matrix(0.751346, 0, 0, 0.749732, 38.391094, 5.204736)" fill="none" stroke-linejoin="miter" d="M 181.111783 105.4001 C 181.038997 105.301106 180.799843 105.15522 180.39952 104.967653 C 163.289607 97.011685 145.753376 92.020318 127.796025 89.983132 C 108.190592 87.758379 87.831303 87.675016 66.71296 89.722622 C 58.113812 90.551043 49.63944 92.093261 41.295043 94.354486 C 37.759722 95.313162 34.401167 96.886641 31.136194 97.491023 C 30.985423 97.522284 30.89704 97.605648 30.865846 97.751533 C 30.829453 97.897418 30.876244 98.017253 30.995821 98.105826 C 39.075069 103.80057 47.284292 106.671387 58.300976 109.714141 C 71.558429 113.387329 86.209214 115.445356 102.248133 115.883012 C 128.487493 116.602019 154.680061 113.376908 180.831037 106.20768 C 181.002604 106.155578 181.116982 106.046164 181.174171 105.874227 C 181.236559 105.707501 181.210564 105.545985 181.111783 105.4001 " stroke="#222222" stroke-width="1.034" stroke-opacity="1" stroke-miterlimit="4"/><path stroke-linecap="butt" transform="matrix(0.751346, 0, 0, 0.749732, 38.391094, 5.204736)" fill="none" stroke-linejoin="miter" d="M 38.685144 133.232962 L 42.428425 117.373128 C 42.480415 117.1543 42.45442 116.945892 42.345241 116.747905 C 42.236062 116.549917 42.080092 116.414452 41.866933 116.336299 L 35.716514 114.064654 C 35.513753 113.986501 35.310992 113.986501 35.103032 114.069864 C 34.900271 114.148017 34.7495 114.288692 34.650719 114.48147 C 30.938632 121.926839 31.88485 128.293697 37.489374 133.587255 C 37.582956 133.675829 37.692135 133.733141 37.816911 133.764402 C 37.941687 133.795663 38.066463 133.790453 38.191239 133.753982 C 38.310816 133.71751 38.419995 133.654988 38.508378 133.561204 C 38.596761 133.467421 38.65395 133.358007 38.685144 133.232962 " stroke="#6a4818" stroke-width="1.034" stroke-opacity="1" stroke-miterlimit="4"/><path stroke-linecap="butt" transform="matrix(0.751346, 0, 0, 0.749732, 38.391094, 5.204736)" fill="none" stroke-linejoin="miter" d="M 177.129348 119.446786 L 179.890018 135.337881 C 179.926411 135.561919 180.051187 135.713015 180.269545 135.791168 C 180.482704 135.869321 180.680266 135.832849 180.851833 135.681754 C 186.113222 131.169725 188.769912 124.667401 185.510138 117.925409 C 185.411357 117.722211 185.260586 117.571115 185.063024 117.472122 C 184.865462 117.367918 184.652303 117.336657 184.433945 117.373128 L 177.774024 118.529791 C 177.560865 118.566263 177.389298 118.675677 177.264522 118.852823 C 177.139746 119.02997 177.092955 119.227957 177.129348 119.446786 " stroke="#6a4818" stroke-width="1.034" stroke-opacity="1" stroke-miterlimit="4"/><path stroke-linecap="butt" transform="matrix(0.751346, 0, 0, 0.749732, 38.391094, 5.204736)" fill="none" stroke-linejoin="miter" d="M 47.024342 167.312849 C 39.719745 172.856496 34.567535 179.129571 31.578109 186.126863 C 30.034006 189.706267 30.657886 194.160984 33.117014 197.584083 C 36.527559 202.33057 37.863702 204.940878 35.461763 210.776297 C 35.336987 211.073278 34.271192 213.667955 32.269576 218.565538 C 30.969826 221.738547 29.482912 229.600732 32.009626 232.372556 C 33.418556 233.930404 35.726912 235.753972 38.934696 237.853681 C 44.32606 241.380983 44.404045 244.402896 44.975936 251.243883 C 45.57902 258.329748 49.862997 266.249245 58.030628 266.228404 C 59.990651 266.223194 61.602342 266.233614 62.8605 266.270085 C 63.17244 266.285716 63.473982 266.348238 63.765126 266.462863 C 65.657563 267.233972 66.806542 268.494839 67.206865 270.250675 C 69.021316 278.180592 73.274099 292.367953 84.654713 287.986179 C 87.165831 287.017083 88.928292 285.678062 91.408216 285.203935 C 94.995527 284.505768 98.421668 285.297718 101.686641 287.574573 C 106.942831 291.23213 111.398376 295.645166 117.382426 291.904246 C 118.146679 291.430118 120.834563 289.538817 125.456475 286.230343 C 125.820405 285.964623 126.220728 285.756215 126.652245 285.60512 C 130.967416 284.073322 134.90306 285.657222 139.135047 287.543312 C 144.635591 290.002524 152.111754 290.200512 155.314339 284.198367 C 157.310756 280.447026 155.953816 275.299354 160.419758 272.840142 C 167.828335 268.760559 174.581838 263.586835 174.83139 254.620089 C 174.919773 251.254303 174.680619 246.117051 176.245518 243.850616 C 179.546884 239.062446 190.064463 239.583466 189.61215 229.840401 C 189.310608 223.181771 184.704293 214.07956 183.383747 210.411583 C 181.413325 204.909617 183.674891 202.200315 186.341979 197.677866 C 189.814911 191.759084 186.991854 185.975768 183.061409 181.067764 C 179.15176 176.15976 174.41547 171.746725 168.852538 167.818238 " stroke="#6a4818" stroke-width="1.034" stroke-opacity="1" stroke-miterlimit="4"/><path stroke-linecap="butt" transform="matrix(0.751346, 0, 0, 0.749732, 38.391094, 5.204736)" fill="none" stroke-linejoin="miter" d="M 161.875479 182.860071 C 164.490576 185.340124 167.220052 187.997323 170.063906 190.84209 C 174.498654 195.265546 177.493278 200.819614 171.982337 206.019389 C 162.920478 214.59537 149.2731 219.451272 137.512959 215.772874 C 126.246723 212.245572 117.039292 205.826611 109.895864 196.505572 C 109.781486 196.354476 109.635914 196.234642 109.459148 196.146069 C 109.287581 196.062706 109.105616 196.015814 108.913253 196.010604 C 108.72089 196.010604 108.533726 196.047075 108.362159 196.130438 C 108.185393 196.208591 108.034622 196.323215 107.909846 196.474311 C 99.929379 206.191325 91.257445 213.225088 78.733051 216.309524 C 66.822139 219.232443 54.438118 214.907981 45.386657 206.84781 C 41.196262 203.12773 41.67457 199.1263 44.575612 195.025877 C 47.798993 190.451325 52.051776 186.611412 56.023813 182.620402 " stroke="#6a4818" stroke-width="1.034" stroke-opacity="1" stroke-miterlimit="4"/><path stroke-linecap="butt" transform="matrix(0.751346, 0, 0, 0.749732, 38.391094, 5.204736)" fill="none" stroke-linejoin="miter" d="M 55.405132 199.782785 C 55.800256 200.486161 56.398141 201.080124 57.188389 201.554251 C 67.212064 207.551186 77.178549 207.233364 87.093045 200.605996 C 93.019906 196.635827 98.052539 191.64446 102.196143 185.642315 C 102.580869 185.079614 102.768033 184.459601 102.752436 183.777065 C 102.742038 183.09974 102.534078 182.484937 102.128556 181.943077 C 95.702591 173.200369 82.419143 177.634245 75.202929 182.55788 C 68.392237 187.200164 61.836297 192.665658 55.535107 198.943943 C 55.285555 199.183612 55.243963 199.464963 55.405132 199.782785 " stroke="#6a4818" stroke-width="1.034" stroke-opacity="1" stroke-miterlimit="4"/><path stroke-linecap="butt" transform="matrix(0.751346, 0, 0, 0.749732, 38.391094, 5.204736)" fill="none" stroke-linejoin="miter" d="M 162.379782 199.319078 C 162.54615 198.996045 162.499359 198.719905 162.239409 198.480236 C 155.870632 192.269683 149.252304 186.887552 142.389622 182.318211 C 135.131816 177.48315 121.796378 173.189949 115.474392 182.005599 C 115.074069 182.55267 114.871308 183.167473 114.866109 183.850008 C 114.86091 184.527333 115.053273 185.147347 115.443198 185.704838 C 119.659589 191.660091 124.744212 196.588935 130.707466 200.496582 C 140.689549 207.009326 150.661233 207.217733 160.612121 201.111385 C 161.40237 200.621626 161.995056 200.022454 162.379782 199.319078 " stroke="#6a4818" stroke-width="1.034" stroke-opacity="1" stroke-miterlimit="4"/><path stroke-linecap="butt" transform="matrix(0.751346, 0, 0, 0.749732, 38.391094, 5.204736)" fill="none" stroke-linejoin="miter" d="M 110.046635 220.75382 C 108.149 220.779871 106.069399 219.545055 104.546092 218.685373 C 104.374525 218.586379 104.19256 218.513437 104.005396 218.466545 C 101.660646 217.935105 100.007364 218.560328 99.045549 220.337005 C 95.08391 227.605227 104.364127 232.409027 110.213003 232.320454 C 116.056681 232.23188 125.196525 227.183201 121.042523 220.034814 C 120.028718 218.278978 118.354639 217.700646 116.025487 218.294608 C 115.838323 218.34671 115.656358 218.424863 115.484791 218.534277 C 113.997876 219.440851 111.94947 220.722559 110.046635 220.75382 " stroke="#6a4818" stroke-width="1.034" stroke-opacity="1" stroke-miterlimit="4"/><path stroke-linecap="butt" transform="matrix(0.751346, 0, 0, 0.749732, 38.391094, 5.204736)" fill="none" stroke-linejoin="miter" d="M 71.792384 124.589248 C 64.529379 123.489897 58.940453 122.22903 55.020406 120.806647 C 54.838441 120.738914 54.656476 120.712863 54.464113 120.728494 C 54.27175 120.744124 54.094984 120.796226 53.928616 120.8848 C 53.757049 120.973373 53.616676 121.098418 53.502298 121.249513 C 53.382721 121.400609 53.304736 121.567335 53.257945 121.754902 L 48.901181 140.198993 C 48.864788 140.355299 48.864788 140.511605 48.901181 140.667911 C 48.932375 140.824216 48.999963 140.964892 49.098744 141.089936 C 49.197525 141.214981 49.317102 141.308765 49.462674 141.381707 C 49.603047 141.44944 49.753818 141.485911 49.914987 141.485911 L 53.356726 141.485911 C 53.793442 141.485911 54.188566 141.355656 54.536899 141.100357 C 54.890431 140.839847 55.129585 140.506395 55.254361 140.094789 C 57.734285 132.170082 63.255624 127.29855 71.81318 125.485402 C 72.067931 125.43851 72.192707 125.287414 72.187508 125.032115 C 72.182309 124.771605 72.052334 124.62572 71.792384 124.589248 " stroke="#8a6020" stroke-width="1.034" stroke-opacity="1" stroke-miterlimit="4"/><path stroke-linecap="butt" transform="matrix(0.751346, 0, 0, 0.749732, 38.391094, 5.204736)" fill="none" stroke-linejoin="miter" d="M 143.5438 125.573975 C 151.545063 127.996716 156.723268 133.17565 159.088814 141.105567 C 159.156401 141.329605 159.286376 141.506752 159.47354 141.642217 C 159.660704 141.777682 159.873863 141.845415 160.102619 141.840204 L 168.369031 141.699529 C 168.5302 141.699529 168.660175 141.637007 168.764155 141.517172 C 168.862936 141.392128 168.904528 141.256663 168.878533 141.095147 L 166.039879 122.400966 C 166.003486 122.182138 165.899506 122.010202 165.72274 121.879947 C 165.545974 121.749692 165.348411 121.69759 165.130053 121.734061 L 143.590591 125.000854 C 143.424223 125.016484 143.341039 125.105058 143.325442 125.266574 C 143.315044 125.4333 143.38783 125.532294 143.5438 125.573975 " stroke="#8a6020" stroke-width="1.034" stroke-opacity="1" stroke-miterlimit="4"/><path stroke-linecap="butt" transform="matrix(0.751346, 0, 0, 0.749732, 38.391094, 5.204736)" fill="none" stroke-linejoin="miter" d="M 84.633917 126.079364 C 91.896922 128.877239 96.742391 133.868606 99.175524 141.053465 C 99.24831 141.261873 99.373086 141.433809 99.549852 141.558854 C 99.726618 141.689109 99.92418 141.756841 100.147737 141.756841 L 114.107055 141.756841 C 114.393 141.756841 114.569766 141.616166 114.642552 141.345236 C 116.311432 134.665766 120.17429 129.96617 126.220728 127.246448 C 126.387096 127.183926 126.449484 127.064091 126.407892 126.892155 C 126.3663 126.720218 126.257121 126.642065 126.080355 126.662906 C 112.006659 127.632002 98.218907 127.329811 84.717101 125.756332 C 84.607922 125.735491 84.540335 125.777173 84.509141 125.886587 C 84.483146 125.990791 84.519539 126.058523 84.633917 126.079364 " stroke="#8a6020" stroke-width="1.034" stroke-opacity="1" stroke-miterlimit="4"/><path stroke-linecap="butt" transform="matrix(0.751346, 0, 0, 0.749732, 38.391094, 5.204736)" fill="none" stroke-linejoin="miter" d="M 34.619525 149.811803 C 29.971618 153.260952 29.217763 157.309274 32.352761 161.961978 C 32.72189 162.498628 33.330173 162.899813 34.188008 163.160323 C 34.271192 163.186374 34.349177 163.175954 34.416764 163.123852 C 34.48955 163.07175 34.531142 162.998807 34.531142 162.910234 L 35.134226 150.093154 C 35.144624 149.957689 35.087435 149.853485 34.967858 149.785752 C 34.848281 149.72323 34.728704 149.72844 34.619525 149.811803 " stroke="#8a6020" stroke-width="1.034" stroke-opacity="1" stroke-miterlimit="4"/><path stroke-linecap="butt" transform="matrix(0.751346, 0, 0, 0.749732, 38.391094, 5.204736)" fill="none" stroke-linejoin="miter" d="M 168.852538 167.818238 C 168.249454 166.453166 167.999902 164.817165 168.109081 162.910234 C 168.37423 158.101224 168.597787 154.870903 168.779752 153.234901 C 168.795349 153.042124 168.743359 152.870188 168.608185 152.729512 C 168.47821 152.588837 168.317041 152.515894 168.119479 152.521105 L 160.092221 152.66178 C 159.728291 152.66699 159.395555 152.776404 159.099212 152.995232 C 158.79767 153.20885 158.58971 153.490201 158.464934 153.839284 C 155.844637 161.289863 150.442875 166.156185 142.249249 168.443461 C 142.186861 168.464302 142.150468 168.511194 142.145269 168.578926 C 142.14007 168.646659 142.166065 168.69355 142.228453 168.724812 C 149.283498 172.220852 154.52929 176.623467 161.875479 182.854861 " stroke="#8a6020" stroke-width="1.034" stroke-opacity="1" stroke-miterlimit="4"/><path stroke-linecap="butt" transform="matrix(0.751346, 0, 0, 0.749732, 38.391094, 5.204736)" fill="none" stroke-linejoin="miter" d="M 56.023813 182.620402 C 61.747914 177.530041 68.023108 173.059694 74.849397 169.21978 C 74.953377 169.157258 75.000168 169.068684 74.974173 168.94364 C 74.953377 168.823805 74.880591 168.756073 74.761014 168.745652 C 64.966095 167.500416 58.33217 162.26938 54.864436 153.052544 C 54.68767 152.562786 54.328939 152.302276 53.798641 152.271015 L 47.798993 151.994875 C 47.617028 151.984454 47.45066 152.041767 47.305088 152.156391 C 47.164715 152.271015 47.071133 152.416901 47.03474 152.599258 C 46.696805 154.344673 46.520039 156.157821 46.504442 158.033491 C 46.494044 160.982462 46.665611 164.077317 47.024342 167.312849 " stroke="#8a6020" stroke-width="1.034" stroke-opacity="1" stroke-miterlimit="4"/><path stroke-linecap="butt" transform="matrix(0.751346, 0, 0, 0.749732, 38.391094, 5.204736)" fill="none" stroke-linejoin="miter" d="M 124.957371 165.359025 C 120.028718 162.2798 116.779342 158.27837 115.204044 153.354736 C 115.141656 153.151538 115.027278 152.990022 114.855711 152.870188 C 114.689343 152.745143 114.49698 152.682621 114.28902 152.682621 L 100.168533 152.682621 C 99.783807 152.682621 99.430275 152.792035 99.118335 153.016073 C 98.801195 153.234901 98.582837 153.531882 98.452862 153.891386 C 96.846371 158.434676 93.950527 162.092233 89.754933 164.864057 C 89.609361 164.963051 89.567769 165.098516 89.624958 165.265242 C 89.676948 165.437178 89.796525 165.515331 89.973291 165.510121 C 96.919157 165.270452 102.929202 167.104441 107.998229 171.012087 C 108.154199 171.131922 108.325766 171.189234 108.523328 171.189234 C 108.72089 171.189234 108.892457 171.126712 109.043228 171.001667 C 112.100241 168.558085 115.807129 166.979396 120.169091 166.265599 C 120.27827 166.249969 121.832771 166.109294 124.837794 165.843574 C 124.972968 165.843574 125.050953 165.775841 125.082147 165.650796 C 125.113341 165.520542 125.071749 165.421548 124.957371 165.359025 " stroke="#8a6020" stroke-width="1.034" stroke-opacity="1" stroke-miterlimit="4"/><path stroke-linecap="butt" transform="matrix(0.751346, 0, 0, 0.749732, 38.391094, 5.204736)" fill="none" stroke-linejoin="miter" d="M 125.513664 145.544653 C 125.456475 146.25324 125.472072 146.961826 125.560455 147.665203 C 125.643639 148.373789 125.804808 149.066745 126.038763 149.744071 C 126.267519 150.426606 126.569061 151.077881 126.93819 151.703104 C 127.30212 152.323117 127.728438 152.911869 128.217145 153.45373 C 128.705851 154.0008 129.246547 154.495769 129.834034 154.943845 C 130.42672 155.391922 131.055799 155.777477 131.72647 156.105719 C 132.397142 156.433961 133.093808 156.699681 133.816469 156.902879 C 134.53913 157.100866 135.277388 157.231121 136.026044 157.293643 C 136.774701 157.356166 137.523357 157.350955 138.272013 157.272803 C 139.01547 157.19986 139.748529 157.053974 140.465992 156.840356 C 141.178255 156.626738 141.864523 156.350598 142.519597 156.006725 C 143.17987 155.668062 143.793352 155.266877 144.365242 154.81359 C 144.937133 154.355093 145.457033 153.849704 145.919744 153.297424 C 146.387654 152.739933 146.793176 152.145971 147.131111 151.515537 C 147.474245 150.885103 147.749792 150.228619 147.952553 149.546083 C 148.155314 148.863548 148.290488 148.170592 148.347677 147.462005 C 148.410065 146.753419 148.394468 146.044832 148.306085 145.336245 C 148.217702 144.627659 148.056533 143.934703 147.827777 143.257378 C 147.593822 142.580052 147.297479 141.928778 146.92835 141.303554 C 146.559221 140.678331 146.132903 140.094789 145.644197 139.547719 C 145.16069 139.000648 144.619994 138.50568 144.027307 138.057603 C 143.43982 137.614736 142.810741 137.223972 142.14007 136.895729 C 141.469399 136.567487 140.772733 136.301767 140.050071 136.10378 C 139.32741 135.900582 138.589152 135.770327 137.840496 135.707805 C 137.086641 135.645282 136.343184 135.650493 135.594527 135.728646 C 134.845871 135.806798 134.118011 135.952684 133.400549 136.161092 C 132.683087 136.37471 132.002017 136.65606 131.341744 136.994723 C 130.68667 137.338596 130.073188 137.734571 129.501298 138.193068 C 128.929408 138.646355 128.409508 139.151744 127.941597 139.709235 C 127.478886 140.261515 127.073364 140.855478 126.73023 141.485911 C 126.387096 142.116345 126.116748 142.772829 125.913987 143.455365 C 125.706027 144.137901 125.576052 144.836067 125.513664 145.544653 " stroke="#1a2454" stroke-width="1.034" stroke-opacity="1" stroke-miterlimit="4"/><path stroke-linecap="butt" transform="matrix(0.751346, 0, 0, 0.749732, 38.391094, 5.204736)" fill="none" stroke-linejoin="miter" d="M 65.808334 145.518602 C 65.745946 146.216768 65.756344 146.914935 65.839528 147.613101 C 65.922712 148.306057 66.078682 148.988592 66.302239 149.660707 C 66.525796 150.327612 66.81694 150.973677 67.175671 151.58848 C 67.534402 152.203283 67.950322 152.781614 68.42863 153.323475 C 68.906938 153.860125 69.437236 154.349883 70.014326 154.79275 C 70.596614 155.235616 71.215295 155.621171 71.870369 155.949413 C 72.530642 156.277655 73.211711 156.538165 73.923975 156.741363 C 74.636238 156.93935 75.364098 157.074815 76.102356 157.137337 C 76.840614 157.20507 77.573673 157.20507 78.311932 157.132127 C 79.044991 157.059185 79.767652 156.923719 80.474716 156.715312 C 81.18178 156.512114 81.85765 156.241184 82.502327 155.907731 C 83.152202 155.574279 83.760485 155.183514 84.327176 154.740648 C 84.893867 154.292571 85.403369 153.797602 85.86608 153.255742 C 86.328791 152.713882 86.729115 152.13034 87.06705 151.510327 C 87.410184 150.895524 87.680532 150.249459 87.888492 149.577344 C 88.091253 148.905229 88.226427 148.222694 88.288815 147.524527 C 88.351203 146.831571 88.340805 146.133405 88.257621 145.435239 C 88.174437 144.737073 88.018467 144.054537 87.79491 143.387632 C 87.571353 142.715517 87.280209 142.074663 86.921478 141.45986 C 86.562747 140.845057 86.141627 140.266726 85.663319 139.724865 C 85.185011 139.188215 84.659912 138.693247 84.077624 138.25559 C 83.500535 137.812724 82.881854 137.427169 82.22678 137.098927 C 81.566506 136.770685 80.880238 136.504965 80.167975 136.306977 C 79.455712 136.10378 78.733051 135.973525 77.994792 135.905792 C 77.256534 135.84327 76.518276 135.84327 75.785217 135.916213 C 75.046959 135.989155 74.329497 136.12462 73.622432 136.333028 C 72.915368 136.536226 72.239498 136.807156 71.589623 137.140608 C 70.944947 137.468851 70.336664 137.859615 69.769973 138.307692 C 69.203281 138.755769 68.68858 139.250737 68.231068 139.792598 C 67.768357 140.334458 67.368034 140.91279 67.0249 141.532803 C 66.686965 142.152816 66.411418 142.79888 66.208657 143.470996 C 66.005896 144.137901 65.870722 144.825646 65.808334 145.518602 " stroke="#1a2454" stroke-width="1.034" stroke-opacity="1" stroke-miterlimit="4"/><path stroke-linecap="butt" transform="matrix(0.751346, 0, 0, 0.749732, 38.391094, 5.204736)" fill="none" stroke-linejoin="miter" d="M 180.461908 150.515179 L 179.900416 163.34268 C 179.900416 163.368731 179.916013 163.384361 179.942008 163.384361 L 179.999197 163.394782 C 180.461908 163.415623 180.914221 163.274947 181.361335 162.972756 C 181.80325 162.675775 182.203574 162.238119 182.557106 161.664997 C 182.910638 161.086665 183.191384 160.41976 183.404543 159.659072 C 183.612503 158.898383 183.737279 158.101224 183.773672 157.267592 L 183.794468 156.902879 C 183.830861 156.069247 183.778871 155.261667 183.633299 154.485348 C 183.487727 153.709029 183.26417 153.021283 182.957429 152.422111 C 182.655887 151.817728 182.297156 151.348811 181.881235 151.015358 C 181.465315 150.676695 181.0234 150.499549 180.560689 150.483918 L 180.5035 150.473498 C 180.477505 150.473498 180.461908 150.483918 180.461908 150.515179 " stroke="#8a6020" stroke-width="1.034" stroke-opacity="1" stroke-miterlimit="4"/><path stroke-linecap="butt" transform="matrix(0.751346, 0, 0, 0.749732, 38.391094, 5.204736)" fill="none" stroke-linejoin="miter" d="M 56.023813 182.620402 C 53.4919 176.727671 50.492076 171.62689 47.024342 167.312849 " stroke="#c8a05a" stroke-width="1.034" stroke-opacity="1" stroke-miterlimit="4"/><path stroke-linecap="butt" transform="matrix(0.751346, 0, 0, 0.749732, 38.391094, 5.204736)" fill="none" stroke-linejoin="miter" d="M 168.852538 167.818238 C 165.977491 172.351107 163.648338 177.363315 161.875479 182.860071 " stroke="#c8a05a" stroke-width="1.034" stroke-opacity="1" stroke-miterlimit="4"/><g clip-path="url(#5f3137a378)"><path fill="#000000" d="M 185.832031 90.277344 C 185.65625 90.375 185.53125 90.519531 185.460938 90.703125 C 185.386719 90.890625 185.378906 91.078125 185.441406 91.269531 C 187.863281 98.695312 186.726562 105.246094 182.035156 110.925781 C 181.734375 111.285156 181.320312 111.800781 180.796875 112.46875 C 180.628906 112.683594 180.628906 112.902344 180.796875 113.117188 C 181.546875 114.097656 182.128906 115.03125 182.539062 115.914062 C 185.34375 122.0625 184.746094 127.660156 180.742188 132.707031 C 180.636719 132.835938 180.582031 132.980469 180.582031 133.148438 C 180.578125 133.3125 180.625 133.460938 180.722656 133.597656 C 182.003906 135.367188 184.089844 137.46875 185.425781 139.792969 C 188.894531 145.816406 188.808594 152.105469 185.167969 158.667969 C 184.511719 159.84375 184.464844 161.089844 185.027344 162.40625 C 186.460938 165.753906 187.488281 168.425781 188.109375 170.421875 C 191.195312 180.417969 187.996094 187.933594 179.109375 193.050781 C 178.636719 193.324219 178.394531 193.738281 178.390625 194.289062 C 178.238281 204.027344 173.976562 210.964844 165.597656 215.101562 C 165.113281 215.339844 164.820312 215.722656 164.722656 216.25 C 162.648438 227.582031 152.28125 232.804688 141.324219 229.433594 C 140.011719 229.027344 138.582031 228.464844 137.035156 227.742188 C 136.8125 227.636719 136.578125 227.597656 136.332031 227.625 C 136.085938 227.652344 135.867188 227.742188 135.671875 227.894531 C 134.226562 229.042969 133.191406 229.851562 132.578125 230.320312 C 125.507812 235.699219 116.738281 233.953125 110.546875 228.105469 C 110.265625 227.839844 109.933594 227.667969 109.554688 227.585938 C 109.171875 227.503906 108.800781 227.527344 108.429688 227.652344 C 106.566406 228.300781 104.320312 229.757812 102.066406 230.121094 C 91.773438 231.769531 83.796875 223.578125 82.136719 214.089844 C 82.109375 213.917969 82.03125 213.773438 81.90625 213.652344 C 81.785156 213.53125 81.636719 213.457031 81.464844 213.433594 L 77.371094 212.8125 C 77.222656 212.789062 77.082031 212.75 76.949219 212.699219 C 68.046875 208.839844 63.726562 200.953125 63.4375 191.304688 C 63.425781 190.855469 63.21875 190.53125 62.820312 190.328125 C 54.023438 185.800781 51.019531 178.632812 53.816406 168.820312 C 54.492188 166.441406 55.464844 163.828125 56.734375 160.984375 C 56.882812 160.644531 56.945312 160.292969 56.921875 159.925781 C 56.898438 159.558594 56.792969 159.21875 56.601562 158.902344 C 55.710938 157.433594 55.078125 156.34375 54.699219 155.636719 C 50.96875 148.753906 53.75 141.457031 57.550781 135.3125 C 57.699219 135.066406 57.757812 134.804688 57.722656 134.523438 C 57.691406 134.238281 57.574219 133.996094 57.371094 133.789062 C 51.335938 127.667969 51.210938 116.984375 58.402344 111.742188 C 58.6875 111.535156 58.933594 111.34375 59.140625 111.167969 C 59.25 111.078125 59.3125 110.964844 59.332031 110.824219 C 59.351562 110.683594 59.324219 110.550781 59.246094 110.429688 C 58.925781 109.957031 58.351562 109.113281 57.519531 107.898438 C 52.964844 101.277344 53.839844 93.84375 56.878906 87.023438 C 56.960938 86.839844 56.96875 86.652344 56.90625 86.460938 C 56.84375 86.269531 56.726562 86.125 56.554688 86.023438 C 48.578125 81.347656 41.023438 74.1875 39.378906 64.546875 C 36.914062 50.101562 47.695312 39.839844 58.152344 32.195312 C 71.71875 22.285156 85.960938 14.085938 101.75 9.007812 C 112.464844 5.5625 122.882812 5.414062 132.996094 8.570312 C 141.285156 11.15625 149.5 15.148438 157.640625 20.539062 C 171.816406 29.933594 184.207031 41.011719 194.8125 53.773438 C 195.496094 54.597656 196.488281 56.113281 197.785156 58.320312 C 202.453125 66.246094 202.691406 74.851562 196.835938 81.976562 C 194.007812 85.414062 190.214844 87.777344 185.828125 90.277344 Z M 185.59375 80.488281 C 197.210938 73.6875 193.101562 64.476562 186.128906 56.582031 C 172.617188 41.292969 156.546875 28.214844 138.023438 19.464844 C 130.644531 15.980469 123.035156 14.453125 115.207031 14.886719 C 109.234375 15.21875 101.773438 17.449219 92.820312 21.574219 C 79.808594 27.570312 68.167969 34.863281 57.902344 43.445312 C 55.746094 45.257812 52.015625 48.613281 50.628906 50.820312 C 45.738281 58.585938 46.519531 65.605469 52.964844 71.875 C 53.257812 72.160156 53.59375 72.234375 53.976562 72.09375 C 70.660156 65.964844 87.648438 63.222656 105.632812 62.824219 C 114.691406 62.625 122.554688 62.820312 129.230469 63.414062 C 145.488281 64.855469 161.089844 68.839844 176.03125 75.371094 C 179.304688 76.796875 182.203125 78.484375 184.71875 80.433594 C 185 80.648438 185.292969 80.667969 185.597656 80.488281 Z M 174.464844 84.226562 C 174.414062 84.152344 174.234375 84.042969 173.929688 83.902344 C 161.074219 77.9375 147.902344 74.195312 134.410156 72.667969 C 119.679688 71 104.378906 70.9375 88.515625 72.472656 C 82.050781 73.09375 75.6875 74.25 69.417969 75.945312 C 66.761719 76.664062 64.238281 77.84375 61.78125 78.296875 C 61.671875 78.320312 61.605469 78.382812 61.582031 78.492188 C 61.554688 78.601562 61.585938 78.691406 61.679688 78.757812 C 67.75 83.027344 73.917969 85.179688 82.191406 87.460938 C 92.15625 90.214844 103.164062 91.757812 115.214844 92.085938 C 134.929688 92.625 154.609375 90.207031 174.257812 84.832031 C 174.386719 84.792969 174.472656 84.710938 174.515625 84.582031 C 174.5625 84.457031 174.542969 84.335938 174.46875 84.226562 Z M 67.457031 105.09375 L 70.269531 93.203125 C 70.308594 93.039062 70.289062 92.882812 70.207031 92.734375 C 70.125 92.585938 70.007812 92.484375 69.847656 92.425781 L 65.226562 90.722656 C 65.074219 90.664062 64.917969 90.664062 64.765625 90.726562 C 64.613281 90.785156 64.5 90.890625 64.425781 91.035156 C 61.636719 96.617188 62.347656 101.390625 66.558594 105.359375 C 66.628906 105.425781 66.710938 105.46875 66.804688 105.492188 C 66.898438 105.515625 66.992188 105.511719 67.085938 105.484375 C 67.175781 105.457031 67.257812 105.410156 67.324219 105.339844 C 67.390625 105.269531 67.433594 105.1875 67.457031 105.09375 Z M 171.476562 94.757812 L 173.550781 106.671875 C 173.578125 106.839844 173.671875 106.953125 173.835938 107.011719 C 173.996094 107.070312 174.140625 107.042969 174.273438 106.929688 C 178.226562 103.546875 180.222656 98.671875 177.773438 93.617188 C 177.699219 93.464844 177.585938 93.351562 177.4375 93.277344 C 177.285156 93.199219 177.128906 93.175781 176.964844 93.203125 L 171.960938 94.070312 C 171.800781 94.097656 171.671875 94.179688 171.578125 94.3125 C 171.480469 94.445312 171.449219 94.59375 171.476562 94.757812 Z M 92.332031 98.613281 C 86.875 97.789062 82.671875 96.84375 79.730469 95.777344 C 79.59375 95.726562 79.453125 95.707031 79.3125 95.71875 C 79.167969 95.730469 79.035156 95.769531 78.90625 95.835938 C 78.78125 95.902344 78.675781 95.996094 78.585938 96.109375 C 78.5 96.222656 78.441406 96.347656 78.40625 96.488281 L 75.132812 110.316406 C 75.105469 110.433594 75.105469 110.550781 75.132812 110.667969 C 75.15625 110.785156 75.207031 110.890625 75.28125 110.984375 C 75.355469 111.078125 75.445312 111.148438 75.554688 111.203125 C 75.660156 111.253906 75.773438 111.28125 75.894531 111.28125 L 78.480469 111.28125 C 78.808594 111.28125 79.105469 111.183594 79.367188 110.992188 C 79.632812 110.796875 79.8125 110.546875 79.90625 110.238281 C 81.769531 104.296875 85.917969 100.644531 92.347656 99.285156 C 92.539062 99.25 92.632812 99.136719 92.628906 98.945312 C 92.625 98.75 92.523438 98.640625 92.332031 98.613281 Z M 146.242188 99.351562 C 152.25 101.167969 156.144531 105.050781 157.921875 110.996094 C 157.972656 111.164062 158.070312 111.296875 158.210938 111.398438 C 158.351562 111.5 158.507812 111.550781 158.683594 111.546875 L 164.894531 111.441406 C 165.011719 111.441406 165.113281 111.394531 165.1875 111.304688 C 165.265625 111.210938 165.292969 111.109375 165.273438 110.988281 L 163.144531 96.972656 C 163.117188 96.808594 163.039062 96.679688 162.90625 96.582031 C 162.773438 96.484375 162.625 96.449219 162.460938 96.472656 L 146.273438 98.921875 C 146.152344 98.933594 146.089844 99 146.078125 99.121094 C 146.070312 99.246094 146.125 99.320312 146.242188 99.351562 Z M 101.976562 99.730469 C 107.4375 101.828125 111.078125 105.570312 112.90625 110.957031 C 112.957031 111.113281 113.050781 111.242188 113.1875 111.335938 C 113.320312 111.433594 113.46875 111.484375 113.632812 111.484375 L 124.121094 111.484375 C 124.339844 111.484375 124.472656 111.378906 124.527344 111.175781 C 125.78125 106.167969 128.679688 102.644531 133.226562 100.605469 C 133.347656 100.558594 133.394531 100.46875 133.363281 100.339844 C 133.335938 100.210938 133.253906 100.152344 133.121094 100.167969 C 122.546875 100.894531 112.1875 100.667969 102.042969 99.488281 C 101.960938 99.472656 101.910156 99.503906 101.886719 99.585938 C 101.863281 99.664062 101.894531 99.714844 101.976562 99.730469 Z M 132.695312 114.324219 C 132.652344 114.855469 132.664062 115.386719 132.726562 115.914062 C 132.792969 116.445312 132.914062 116.964844 133.089844 117.472656 C 133.261719 117.984375 133.488281 118.472656 133.761719 118.941406 C 134.039062 119.40625 134.359375 119.847656 134.726562 120.253906 C 135.09375 120.664062 135.5 121.035156 135.941406 121.371094 C 136.386719 121.707031 136.859375 121.996094 137.363281 122.242188 C 137.863281 122.488281 138.386719 122.6875 138.933594 122.839844 C 139.476562 122.988281 140.03125 123.085938 140.59375 123.132812 C 141.15625 123.179688 141.71875 123.175781 142.28125 123.117188 C 142.839844 123.0625 143.390625 122.953125 143.925781 122.792969 C 144.464844 122.632812 144.980469 122.425781 145.472656 122.167969 C 145.96875 121.914062 146.429688 121.613281 146.859375 121.273438 C 147.289062 120.929688 147.679688 120.550781 148.027344 120.136719 C 148.378906 119.71875 148.683594 119.273438 148.9375 118.800781 C 149.195312 118.328125 149.402344 117.835938 149.554688 117.324219 C 149.707031 116.8125 149.808594 116.292969 149.851562 115.761719 C 149.898438 115.230469 149.886719 114.699219 149.820312 114.167969 C 149.753906 113.636719 149.632812 113.117188 149.460938 112.609375 C 149.285156 112.101562 149.058594 111.613281 148.785156 111.144531 C 148.507812 110.675781 148.1875 110.238281 147.820312 109.828125 C 147.453125 109.417969 147.046875 109.046875 146.605469 108.710938 C 146.160156 108.378906 145.6875 108.085938 145.183594 107.839844 C 144.683594 107.59375 144.160156 107.394531 143.617188 107.246094 C 143.070312 107.09375 142.519531 106.996094 141.953125 106.949219 C 141.390625 106.902344 140.828125 106.90625 140.269531 106.964844 C 139.707031 107.023438 139.15625 107.132812 138.621094 107.289062 C 138.082031 107.449219 137.566406 107.660156 137.074219 107.914062 C 136.582031 108.171875 136.121094 108.46875 135.691406 108.8125 C 135.261719 109.152344 134.871094 109.53125 134.519531 109.949219 C 134.167969 110.363281 133.867188 110.808594 133.609375 111.28125 C 133.351562 111.753906 133.148438 112.246094 132.992188 112.757812 C 132.839844 113.269531 132.742188 113.792969 132.695312 114.324219 Z M 87.835938 114.304688 C 87.789062 114.828125 87.796875 115.351562 87.859375 115.875 C 87.921875 116.394531 88.035156 116.90625 88.207031 117.410156 C 88.375 117.910156 88.59375 118.394531 88.863281 118.855469 C 89.132812 119.316406 89.445312 119.75 89.804688 120.15625 C 90.164062 120.558594 90.5625 120.925781 90.996094 121.257812 C 91.429688 121.589844 91.894531 121.878906 92.390625 122.125 C 92.886719 122.371094 93.398438 122.566406 93.933594 122.71875 C 94.46875 122.867188 95.015625 122.96875 95.570312 123.015625 C 96.125 123.066406 96.675781 123.066406 97.230469 123.011719 C 97.78125 122.957031 98.324219 122.855469 98.855469 122.699219 C 99.386719 122.546875 99.894531 122.34375 100.382812 122.09375 C 100.867188 121.84375 101.324219 121.550781 101.75 121.21875 C 102.175781 120.882812 102.558594 120.511719 102.90625 120.105469 C 103.253906 119.699219 103.554688 119.261719 103.808594 118.796875 C 104.066406 118.335938 104.269531 117.851562 104.425781 117.347656 C 104.578125 116.84375 104.679688 116.332031 104.726562 115.808594 C 104.773438 115.289062 104.765625 114.765625 104.703125 114.242188 C 104.640625 113.71875 104.523438 113.207031 104.355469 112.707031 C 104.183594 112.203125 103.964844 111.722656 103.699219 111.261719 C 103.429688 110.800781 103.113281 110.367188 102.753906 109.960938 C 102.394531 109.558594 102 109.1875 101.5625 108.859375 C 101.128906 108.527344 100.664062 108.238281 100.167969 107.992188 C 99.675781 107.746094 99.160156 107.546875 98.625 107.398438 C 98.089844 107.246094 97.546875 107.148438 96.992188 107.097656 C 96.4375 107.050781 95.882812 107.050781 95.332031 107.105469 C 94.777344 107.160156 94.238281 107.261719 93.707031 107.417969 C 93.175781 107.570312 92.667969 107.773438 92.179688 108.023438 C 91.691406 108.273438 91.238281 108.5625 90.8125 108.898438 C 90.386719 109.234375 90 109.605469 89.652344 110.011719 C 89.308594 110.417969 89.007812 110.851562 88.75 111.316406 C 88.496094 111.78125 88.289062 112.265625 88.136719 112.769531 C 87.984375 113.269531 87.882812 113.785156 87.835938 114.304688 Z M 64.402344 117.523438 C 60.910156 120.109375 60.34375 123.144531 62.699219 126.632812 C 62.972656 127.035156 63.433594 127.335938 64.078125 127.53125 C 64.140625 127.550781 64.195312 127.542969 64.25 127.503906 C 64.304688 127.464844 64.332031 127.410156 64.335938 127.34375 L 64.789062 117.734375 C 64.796875 117.632812 64.753906 117.554688 64.664062 117.503906 C 64.570312 117.457031 64.484375 117.460938 64.402344 117.523438 Z M 173.980469 118.050781 L 173.558594 127.667969 C 173.558594 127.6875 173.570312 127.699219 173.589844 127.699219 L 173.632812 127.707031 C 173.980469 127.722656 174.320312 127.617188 174.65625 127.390625 C 174.988281 127.167969 175.289062 126.839844 175.554688 126.410156 C 175.820312 125.976562 176.03125 125.476562 176.191406 124.90625 C 176.347656 124.335938 176.441406 123.738281 176.46875 123.113281 L 176.484375 122.839844 C 176.511719 122.214844 176.46875 121.609375 176.363281 121.027344 C 176.253906 120.445312 176.085938 119.929688 175.855469 119.480469 C 175.628906 119.027344 175.359375 118.675781 175.046875 118.425781 C 174.734375 118.171875 174.402344 118.039062 174.054688 118.027344 L 174.011719 118.019531 C 173.992188 118.019531 173.980469 118.027344 173.980469 118.050781 Z M 73.722656 130.644531 C 68.234375 134.800781 64.363281 139.503906 62.117188 144.75 C 60.957031 147.433594 61.425781 150.773438 63.273438 153.339844 C 65.835938 156.898438 66.839844 158.855469 65.035156 163.230469 C 64.941406 163.453125 64.140625 165.398438 62.632812 169.070312 C 61.660156 171.449219 60.542969 177.34375 62.441406 179.421875 C 63.5 180.589844 65.234375 181.957031 67.644531 183.53125 C 71.695312 186.175781 71.753906 188.441406 72.183594 193.570312 C 72.636719 198.882812 75.855469 204.820312 81.992188 204.804688 C 83.464844 204.800781 84.675781 204.808594 85.621094 204.835938 C 85.855469 204.847656 86.082031 204.894531 86.300781 204.980469 C 87.722656 205.558594 88.585938 206.503906 88.886719 207.820312 C 90.25 213.765625 93.445312 224.402344 101.996094 221.117188 C 103.882812 220.390625 105.203125 219.386719 107.070312 219.03125 C 109.765625 218.507812 112.339844 219.101562 114.792969 220.808594 C 118.742188 223.550781 122.089844 226.859375 126.585938 224.054688 C 127.160156 223.699219 129.179688 222.28125 132.648438 219.800781 C 132.925781 219.601562 133.226562 219.445312 133.550781 219.332031 C 136.792969 218.183594 139.75 219.371094 142.929688 220.785156 C 147.0625 222.628906 152.679688 222.777344 155.085938 218.277344 C 156.585938 215.464844 155.566406 211.605469 158.921875 209.761719 C 164.488281 206.703125 169.5625 202.824219 169.75 196.101562 C 169.8125 193.578125 169.636719 189.726562 170.8125 188.027344 C 173.292969 184.4375 181.195312 184.828125 180.855469 177.523438 C 180.628906 172.53125 177.164062 165.707031 176.175781 162.957031 C 174.695312 158.832031 176.394531 156.800781 178.398438 153.410156 C 181.007812 148.972656 178.882812 144.636719 175.933594 140.957031 C 172.996094 137.277344 169.4375 133.96875 165.257812 131.023438 C 164.804688 130 164.617188 128.773438 164.699219 127.34375 C 164.898438 123.738281 165.066406 121.316406 165.203125 120.089844 C 165.214844 119.945312 165.175781 119.816406 165.074219 119.710938 C 164.976562 119.605469 164.855469 119.550781 164.707031 119.554688 L 158.675781 119.660156 C 158.402344 119.664062 158.152344 119.746094 157.929688 119.910156 C 157.703125 120.070312 157.546875 120.28125 157.453125 120.542969 C 155.484375 126.128906 151.425781 129.777344 145.269531 131.492188 C 145.222656 131.507812 145.195312 131.542969 145.191406 131.59375 C 145.1875 131.644531 145.207031 131.679688 145.253906 131.703125 C 150.554688 134.324219 154.496094 137.625 160.015625 142.300781 C 161.980469 144.160156 164.03125 146.152344 166.167969 148.285156 C 169.496094 151.601562 171.75 155.765625 167.609375 159.664062 C 160.800781 166.09375 150.546875 169.734375 141.710938 166.976562 C 133.246094 164.332031 126.328125 159.519531 120.960938 152.53125 C 120.871094 152.417969 120.761719 152.328125 120.632812 152.261719 C 120.503906 152.199219 120.367188 152.164062 120.222656 152.160156 C 120.078125 152.160156 119.9375 152.1875 119.808594 152.25 C 119.675781 152.308594 119.5625 152.394531 119.46875 152.507812 C 113.472656 159.792969 106.957031 165.066406 97.542969 167.378906 C 88.597656 169.570312 79.289062 166.328125 72.492188 160.285156 C 69.34375 157.496094 69.703125 154.496094 71.882812 151.421875 C 74.304688 147.992188 77.5 145.113281 80.480469 142.121094 C 84.785156 138.304688 89.5 134.953125 94.625 132.074219 C 94.707031 132.027344 94.738281 131.960938 94.722656 131.867188 C 94.707031 131.777344 94.652344 131.726562 94.5625 131.71875 C 87.203125 130.785156 82.21875 126.863281 79.613281 119.953125 C 79.480469 119.585938 79.210938 119.390625 78.8125 119.367188 L 74.304688 119.160156 C 74.167969 119.152344 74.042969 119.195312 73.933594 119.28125 C 73.828125 119.367188 73.757812 119.476562 73.730469 119.613281 C 73.476562 120.921875 73.34375 122.28125 73.332031 123.6875 C 73.320312 125.898438 73.453125 128.21875 73.722656 130.644531 Z M 132.277344 129.179688 C 128.574219 126.871094 126.132812 123.871094 124.949219 120.179688 C 124.902344 120.027344 124.8125 119.90625 124.6875 119.816406 C 124.558594 119.722656 124.417969 119.675781 124.261719 119.675781 L 113.652344 119.675781 C 113.359375 119.675781 113.097656 119.757812 112.863281 119.925781 C 112.625 120.09375 112.460938 120.3125 112.363281 120.582031 C 111.15625 123.988281 108.980469 126.730469 105.828125 128.808594 C 105.71875 128.882812 105.6875 128.984375 105.726562 129.109375 C 105.769531 129.238281 105.859375 129.296875 105.992188 129.292969 C 111.210938 129.113281 115.726562 130.488281 119.535156 133.417969 C 119.652344 133.507812 119.78125 133.550781 119.929688 133.550781 C 120.078125 133.550781 120.207031 133.503906 120.320312 133.410156 C 122.617188 131.578125 125.402344 130.394531 128.679688 129.859375 C 128.757812 129.847656 129.929688 129.742188 132.1875 129.542969 C 132.285156 129.542969 132.347656 129.492188 132.371094 129.398438 C 132.394531 129.300781 132.363281 129.226562 132.277344 129.179688 Z M 80.019531 154.988281 C 80.316406 155.519531 80.761719 155.960938 81.359375 156.316406 C 88.890625 160.8125 96.378906 160.574219 103.828125 155.605469 C 108.28125 152.628906 112.0625 148.886719 115.175781 144.386719 C 115.464844 143.964844 115.601562 143.5 115.59375 142.988281 C 115.585938 142.480469 115.429688 142.019531 115.125 141.613281 C 110.292969 135.058594 100.316406 138.382812 94.894531 142.074219 C 89.777344 145.554688 84.851562 149.652344 80.117188 154.359375 C 79.929688 154.539062 79.898438 154.75 80.019531 154.988281 Z M 160.394531 154.640625 C 160.515625 154.398438 160.480469 154.191406 160.289062 154.011719 C 155.503906 149.355469 150.53125 145.320312 145.375 141.894531 C 139.921875 138.269531 129.902344 135.050781 125.152344 141.660156 C 124.851562 142.070312 124.699219 142.53125 124.695312 143.042969 C 124.691406 143.550781 124.835938 144.015625 125.128906 144.433594 C 128.296875 148.898438 132.117188 152.59375 136.597656 155.523438 C 144.097656 160.40625 151.585938 160.5625 159.066406 155.984375 C 159.660156 155.617188 160.105469 155.167969 160.394531 154.640625 Z M 160.394531 154.640625 " fill-opacity="1" fill-rule="nonzero"/></g><path fill="#000000" d="M 116.445312 48.378906 L 116.277344 38.585938 C 116.273438 38.453125 116.226562 38.339844 116.128906 38.253906 C 116.03125 38.164062 115.917969 38.121094 115.789062 38.132812 C 114.046875 38.261719 110.863281 38.527344 111.242188 35.835938 C 111.308594 35.355469 111.511719 34.949219 111.851562 34.605469 C 112.191406 34.265625 112.597656 34.0625 113.074219 34 C 113.359375 33.957031 114.308594 33.855469 115.917969 33.699219 C 116.21875 33.671875 116.402344 33.515625 116.472656 33.222656 C 116.546875 32.929688 116.453125 32.703125 116.203125 32.535156 C 113.070312 30.496094 111.800781 27.902344 112.394531 24.753906 C 113.722656 17.683594 124.820312 17.757812 125.777344 25.101562 C 126.164062 28.082031 124.835938 30.550781 121.789062 32.503906 C 121.554688 32.648438 121.46875 32.855469 121.53125 33.121094 C 121.59375 33.390625 121.765625 33.535156 122.039062 33.5625 C 123.570312 33.714844 125.9375 33.683594 126.410156 35.058594 C 126.5 35.320312 126.546875 35.585938 126.546875 35.855469 C 126.546875 36.128906 126.503906 36.386719 126.414062 36.632812 C 126.324219 36.878906 126.195312 37.097656 126.027344 37.289062 C 125.855469 37.480469 125.660156 37.628906 125.4375 37.734375 C 124.664062 38.113281 123.546875 38.242188 122.089844 38.125 C 121.921875 38.113281 121.773438 38.160156 121.652344 38.273438 C 121.53125 38.386719 121.476562 38.527344 121.480469 38.691406 L 121.648438 48.53125 C 121.652344 48.699219 121.722656 48.820312 121.871094 48.898438 C 122.019531 48.976562 122.160156 48.96875 122.296875 48.871094 L 127.082031 45.574219 C 127.1875 45.5 127.25 45.398438 127.265625 45.273438 C 127.28125 45.144531 127.25 45.03125 127.164062 44.933594 C 125.476562 43.03125 128.355469 41.011719 129.871094 40.429688 C 130.171875 40.316406 130.449219 40.359375 130.695312 40.558594 C 132.242188 41.765625 133.28125 43.074219 133.808594 44.480469 C 133.964844 44.894531 133.992188 45.320312 133.894531 45.753906 C 133.796875 46.1875 133.585938 46.558594 133.265625 46.867188 C 131.148438 48.910156 129.152344 50.628906 127.277344 52.019531 C 126.347656 52.703125 123.886719 53.714844 119.898438 55.050781 C 119.371094 55.230469 118.84375 55.226562 118.320312 55.042969 C 113.472656 53.371094 110.050781 52.367188 106.929688 48.460938 C 106.625 48.074219 106.226562 47.820312 105.738281 47.707031 L 104.855469 47.5 C 104.640625 47.445312 104.445312 47.359375 104.265625 47.230469 C 104.089844 47.101562 103.941406 46.945312 103.820312 46.757812 C 103.703125 46.574219 103.628906 46.371094 103.589844 46.15625 C 103.550781 45.9375 103.554688 45.722656 103.601562 45.507812 C 103.96875 43.808594 104.824219 42.277344 106.167969 40.914062 C 106.445312 40.628906 106.78125 40.445312 107.167969 40.363281 C 107.558594 40.277344 107.9375 40.308594 108.308594 40.453125 C 109.113281 40.773438 110.128906 41.660156 111.347656 43.121094 C 111.464844 43.265625 111.523438 43.429688 111.519531 43.613281 C 111.511719 43.796875 111.449219 43.957031 111.324219 44.09375 C 110.742188 44.722656 110.597656 45.265625 110.894531 45.71875 C 110.929688 45.773438 110.972656 45.816406 111.027344 45.847656 L 115.9375 48.679688 C 116.050781 48.746094 116.167969 48.746094 116.28125 48.679688 C 116.394531 48.609375 116.449219 48.511719 116.449219 48.378906 Z M 120.605469 26.070312 C 120.605469 25.863281 120.566406 25.660156 120.484375 25.46875 C 120.402344 25.277344 120.289062 25.105469 120.140625 24.957031 C 119.992188 24.808594 119.824219 24.695312 119.628906 24.613281 C 119.433594 24.535156 119.234375 24.496094 119.023438 24.496094 C 118.816406 24.496094 118.613281 24.535156 118.417969 24.613281 C 118.226562 24.695312 118.054688 24.808594 117.90625 24.957031 C 117.757812 25.105469 117.644531 25.277344 117.5625 25.46875 C 117.484375 25.660156 117.445312 25.863281 117.445312 26.070312 C 117.445312 26.28125 117.484375 26.484375 117.566406 26.675781 C 117.644531 26.867188 117.757812 27.039062 117.90625 27.1875 C 118.054688 27.335938 118.226562 27.449219 118.417969 27.53125 C 118.613281 27.609375 118.816406 27.648438 119.023438 27.648438 C 119.234375 27.648438 119.4375 27.609375 119.628906 27.53125 C 119.824219 27.449219 119.996094 27.335938 120.140625 27.1875 C 120.289062 27.039062 120.40625 26.867188 120.484375 26.675781 C 120.566406 26.484375 120.605469 26.28125 120.605469 26.070312 Z M 120.605469 26.070312 " fill-opacity="1" fill-rule="nonzero"/><path fill="#000000" d="M 121.195312 179.382812 C 116.804688 179.449219 109.832031 175.847656 112.808594 170.398438 C 113.53125 169.066406 114.773438 168.597656 116.535156 168.996094 C 116.675781 169.03125 116.808594 169.085938 116.941406 169.160156 C 118.085938 169.804688 119.648438 170.730469 121.074219 170.710938 C 122.5 170.6875 124.042969 169.726562 125.160156 169.046875 C 125.289062 168.964844 125.425781 168.90625 125.566406 168.867188 C 127.316406 168.421875 128.574219 168.855469 129.335938 170.171875 C 132.457031 175.53125 125.589844 179.316406 121.195312 179.382812 Z M 121.195312 179.382812 " fill-opacity="1" fill-rule="nonzero"/><path fill="#ffffff" d="M 184.71875 80.433594 C 182.203125 78.484375 179.304688 76.796875 176.03125 75.371094 C 161.089844 68.839844 145.488281 64.855469 129.230469 63.414062 C 122.554688 62.820312 114.691406 62.625 105.632812 62.824219 C 87.648438 63.222656 70.660156 65.964844 53.976562 72.09375 C 53.59375 72.234375 53.253906 72.160156 52.964844 71.875 C 46.515625 65.605469 45.738281 58.585938 50.628906 50.820312 C 52.015625 48.613281 55.742188 45.257812 57.898438 43.445312 C 68.167969 34.863281 79.808594 27.570312 92.820312 21.574219 C 101.773438 17.449219 109.234375 15.21875 115.207031 14.886719 C 123.035156 14.453125 130.640625 15.980469 138.023438 19.464844 C 156.542969 28.214844 172.617188 41.292969 186.128906 56.582031 C 193.101562 64.476562 197.210938 73.6875 185.59375 80.488281 C 185.292969 80.667969 185 80.648438 184.71875 80.433594 Z M 111.023438 45.847656 C 110.96875 45.816406 110.925781 45.773438 110.894531 45.71875 C 110.597656 45.265625 110.738281 44.722656 111.324219 44.09375 C 111.449219 43.957031 111.511719 43.796875 111.515625 43.613281 C 111.519531 43.429688 111.464844 43.265625 111.347656 43.121094 C 110.125 41.660156 109.113281 40.769531 108.308594 40.453125 C 107.9375 40.308594 107.554688 40.277344 107.167969 40.363281 C 106.777344 40.445312 106.445312 40.628906 106.167969 40.914062 C 104.824219 42.277344 103.964844 43.808594 103.597656 45.507812 C 103.550781 45.722656 103.546875 45.9375 103.585938 46.15625 C 103.625 46.371094 103.703125 46.574219 103.820312 46.757812 C 103.9375 46.945312 104.085938 47.101562 104.265625 47.230469 C 104.445312 47.355469 104.640625 47.445312 104.855469 47.496094 L 105.738281 47.707031 C 106.226562 47.820312 106.621094 48.070312 106.929688 48.460938 C 110.050781 52.367188 113.46875 53.371094 118.316406 55.042969 C 118.84375 55.226562 119.371094 55.230469 119.898438 55.050781 C 123.886719 53.714844 126.34375 52.703125 127.273438 52.019531 C 129.148438 50.628906 131.144531 48.910156 133.265625 46.867188 C 133.585938 46.558594 133.792969 46.1875 133.890625 45.753906 C 133.992188 45.320312 133.960938 44.898438 133.808594 44.480469 C 133.277344 43.074219 132.242188 41.765625 130.695312 40.558594 C 130.449219 40.359375 130.171875 40.316406 129.867188 40.429688 C 128.351562 41.011719 125.476562 43.035156 127.160156 44.933594 C 127.246094 45.03125 127.28125 45.144531 127.265625 45.273438 C 127.25 45.402344 127.1875 45.5 127.078125 45.574219 L 122.296875 48.875 C 122.160156 48.96875 122.019531 48.976562 121.871094 48.898438 C 121.722656 48.820312 121.648438 48.699219 121.648438 48.535156 L 121.480469 38.691406 C 121.472656 38.527344 121.53125 38.390625 121.652344 38.277344 C 121.773438 38.164062 121.917969 38.113281 122.085938 38.125 C 123.546875 38.242188 124.660156 38.113281 125.433594 37.734375 C 125.660156 37.628906 125.855469 37.480469 126.023438 37.289062 C 126.191406 37.101562 126.320312 36.882812 126.410156 36.632812 C 126.5 36.386719 126.546875 36.128906 126.542969 35.855469 C 126.542969 35.585938 126.496094 35.320312 126.40625 35.058594 C 125.9375 33.683594 123.570312 33.714844 122.039062 33.5625 C 121.761719 33.539062 121.59375 33.390625 121.53125 33.121094 C 121.46875 32.855469 121.550781 32.648438 121.785156 32.503906 C 124.835938 30.550781 126.164062 28.085938 125.773438 25.101562 C 124.816406 17.757812 113.722656 17.683594 112.390625 24.753906 C 111.796875 27.902344 113.066406 30.496094 116.203125 32.535156 C 116.453125 32.703125 116.542969 32.929688 116.472656 33.222656 C 116.402344 33.515625 116.214844 33.675781 115.917969 33.699219 C 114.308594 33.855469 113.359375 33.957031 113.074219 34 C 112.597656 34.0625 112.1875 34.265625 111.847656 34.609375 C 111.507812 34.949219 111.304688 35.359375 111.242188 35.835938 C 110.859375 38.527344 114.046875 38.261719 115.789062 38.132812 C 115.917969 38.121094 116.03125 38.164062 116.128906 38.253906 C 116.222656 38.34375 116.273438 38.453125 116.273438 38.585938 L 116.445312 48.378906 C 116.449219 48.511719 116.390625 48.609375 116.277344 48.679688 C 116.164062 48.746094 116.050781 48.746094 115.933594 48.679688 Z M 111.023438 45.847656 " fill-opacity="1" fill-rule="nonzero"/><path fill="#ffffff" d="M 120.605469 26.070312 C 120.605469 26.28125 120.566406 26.484375 120.484375 26.675781 C 120.40625 26.871094 120.289062 27.039062 120.140625 27.1875 C 119.992188 27.335938 119.824219 27.449219 119.628906 27.53125 C 119.433594 27.609375 119.234375 27.648438 119.023438 27.648438 C 118.816406 27.648438 118.613281 27.609375 118.417969 27.53125 C 118.226562 27.449219 118.054688 27.335938 117.90625 27.1875 C 117.757812 27.039062 117.644531 26.871094 117.5625 26.675781 C 117.484375 26.484375 117.441406 26.28125 117.445312 26.070312 C 117.441406 25.863281 117.484375 25.660156 117.5625 25.46875 C 117.644531 25.273438 117.757812 25.105469 117.90625 24.957031 C 118.054688 24.808594 118.226562 24.695312 118.417969 24.613281 C 118.613281 24.535156 118.816406 24.496094 119.023438 24.496094 C 119.234375 24.496094 119.433594 24.535156 119.628906 24.613281 C 119.824219 24.695312 119.992188 24.808594 120.140625 24.957031 C 120.289062 25.105469 120.40625 25.273438 120.484375 25.46875 C 120.566406 25.660156 120.605469 25.863281 120.605469 26.070312 Z M 120.605469 26.070312 " fill-opacity="1" fill-rule="nonzero"/><path fill="#434343" d="M 174.464844 84.226562 C 174.542969 84.335938 174.5625 84.457031 174.515625 84.582031 C 174.472656 84.710938 174.386719 84.792969 174.257812 84.832031 C 154.609375 90.207031 134.925781 92.625 115.214844 92.085938 C 103.164062 91.757812 92.15625 90.214844 82.191406 87.460938 C 73.917969 85.179688 67.75 83.027344 61.675781 78.757812 C 61.585938 78.691406 61.554688 78.601562 61.582031 78.492188 C 61.605469 78.382812 61.671875 78.320312 61.78125 78.296875 C 64.238281 77.84375 66.757812 76.664062 69.417969 75.945312 C 75.6875 74.25 82.050781 73.09375 88.515625 72.472656 C 104.378906 70.9375 119.679688 71 134.410156 72.667969 C 147.902344 74.195312 161.074219 77.9375 173.929688 83.902344 C 174.234375 84.042969 174.414062 84.152344 174.464844 84.226562 Z M 174.464844 84.226562 " fill-opacity="1" fill-rule="nonzero"/><path fill="#c8a05a" d="M 67.457031 105.09375 C 67.433594 105.1875 67.390625 105.269531 67.324219 105.339844 C 67.257812 105.410156 67.175781 105.457031 67.085938 105.484375 C 66.992188 105.511719 66.898438 105.515625 66.804688 105.492188 C 66.710938 105.46875 66.628906 105.425781 66.558594 105.359375 C 62.347656 101.390625 61.636719 96.617188 64.425781 91.035156 C 64.5 90.890625 64.613281 90.785156 64.765625 90.726562 C 64.917969 90.664062 65.074219 90.664062 65.226562 90.722656 L 69.847656 92.425781 C 70.007812 92.484375 70.125 92.585938 70.207031 92.734375 C 70.289062 92.882812 70.308594 93.039062 70.269531 93.203125 Z M 67.457031 105.09375 " fill-opacity="1" fill-rule="nonzero"/><path fill="#c8a05a" d="M 171.476562 94.757812 C 171.449219 94.59375 171.480469 94.445312 171.578125 94.3125 C 171.671875 94.179688 171.800781 94.097656 171.960938 94.070312 L 176.964844 93.203125 C 177.128906 93.175781 177.285156 93.199219 177.4375 93.277344 C 177.585938 93.351562 177.699219 93.464844 177.773438 93.617188 C 180.222656 98.671875 178.226562 103.546875 174.273438 106.929688 C 174.140625 107.042969 173.996094 107.070312 173.835938 107.011719 C 173.671875 106.953125 173.578125 106.839844 173.550781 106.671875 Z M 171.476562 94.757812 " fill-opacity="1" fill-rule="nonzero"/><path fill="#c8a05a" d="M 73.722656 130.644531 C 76.328125 133.878906 78.582031 137.703125 80.484375 142.121094 C 77.5 145.113281 74.304688 147.992188 71.882812 151.421875 C 69.703125 154.496094 69.34375 157.496094 72.492188 160.285156 C 79.292969 166.328125 88.597656 169.570312 97.546875 167.378906 C 106.957031 165.066406 113.472656 159.792969 119.46875 152.507812 C 119.5625 152.394531 119.675781 152.308594 119.808594 152.25 C 119.9375 152.1875 120.078125 152.160156 120.222656 152.160156 C 120.367188 152.164062 120.503906 152.199219 120.632812 152.261719 C 120.765625 152.328125 120.875 152.417969 120.960938 152.53125 C 126.328125 159.519531 133.246094 164.332031 141.710938 166.976562 C 150.546875 169.734375 160.800781 166.09375 167.609375 159.664062 C 171.75 155.765625 169.496094 151.601562 166.167969 148.285156 C 164.03125 146.152344 161.980469 144.160156 160.015625 142.300781 C 161.347656 138.179688 163.097656 134.421875 165.257812 131.023438 C 169.4375 133.96875 172.996094 137.277344 175.933594 140.957031 C 178.882812 144.636719 181.007812 148.972656 178.398438 153.410156 C 176.394531 156.800781 174.695312 158.832031 176.175781 162.957031 C 177.167969 165.707031 180.628906 172.53125 180.855469 177.523438 C 181.195312 184.828125 173.292969 184.4375 170.8125 188.027344 C 169.636719 189.726562 169.8125 193.578125 169.75 196.101562 C 169.5625 202.824219 164.488281 206.703125 158.921875 209.761719 C 155.566406 211.605469 156.585938 215.464844 155.085938 218.277344 C 152.679688 222.777344 147.0625 222.628906 142.929688 220.785156 C 139.75 219.371094 136.792969 218.183594 133.550781 219.332031 C 133.226562 219.445312 132.925781 219.601562 132.648438 219.800781 C 129.179688 222.28125 127.160156 223.699219 126.585938 224.054688 C 122.089844 226.859375 118.742188 223.550781 114.792969 220.808594 C 112.339844 219.101562 109.765625 218.507812 107.070312 219.03125 C 105.203125 219.386719 103.882812 220.390625 101.996094 221.117188 C 93.445312 224.402344 90.25 213.765625 88.886719 207.820312 C 88.585938 206.503906 87.722656 205.558594 86.300781 204.980469 C 86.082031 204.894531 85.855469 204.847656 85.621094 204.835938 C 84.675781 204.808594 83.464844 204.796875 81.992188 204.804688 C 75.855469 204.820312 72.636719 198.882812 72.183594 193.570312 C 71.753906 188.441406 71.695312 186.175781 67.644531 183.53125 C 65.234375 181.957031 63.5 180.589844 62.441406 179.421875 C 60.542969 177.34375 61.660156 171.449219 62.632812 169.070312 C 64.140625 165.398438 64.941406 163.453125 65.035156 163.230469 C 66.839844 158.855469 65.835938 156.898438 63.273438 153.339844 C 61.425781 150.773438 60.957031 147.433594 62.117188 144.75 C 64.363281 139.503906 68.234375 134.800781 73.722656 130.644531 Z M 121.074219 170.710938 C 119.648438 170.730469 118.085938 169.804688 116.941406 169.160156 C 116.8125 169.085938 116.675781 169.03125 116.535156 168.996094 C 114.773438 168.597656 113.53125 169.066406 112.808594 170.398438 C 109.832031 175.847656 116.804688 179.449219 121.195312 179.382812 C 125.589844 179.316406 132.457031 175.53125 129.335938 170.171875 C 128.574219 168.855469 127.316406 168.421875 125.566406 168.867188 C 125.425781 168.90625 125.289062 168.964844 125.160156 169.046875 C 124.042969 169.726562 122.5 170.6875 121.074219 170.710938 Z M 121.074219 170.710938 " fill-opacity="1" fill-rule="nonzero"/><path fill="#c8a05a" d="M 80.019531 154.988281 C 79.898438 154.75 79.929688 154.539062 80.117188 154.359375 C 84.851562 149.652344 89.777344 145.554688 94.894531 142.074219 C 100.316406 138.382812 110.292969 135.058594 115.125 141.613281 C 115.429688 142.019531 115.585938 142.480469 115.59375 142.988281 C 115.601562 143.5 115.464844 143.964844 115.175781 144.386719 C 112.0625 148.886719 108.277344 152.628906 103.824219 155.605469 C 96.378906 160.574219 88.890625 160.8125 81.359375 156.316406 C 80.761719 155.960938 80.316406 155.515625 80.019531 154.988281 Z M 80.019531 154.988281 " fill-opacity="1" fill-rule="nonzero"/><path fill="#c8a05a" d="M 160.394531 154.640625 C 160.101562 155.167969 159.660156 155.617188 159.066406 155.984375 C 151.585938 160.5625 144.097656 160.40625 136.597656 155.523438 C 132.117188 152.59375 128.292969 148.898438 125.128906 144.433594 C 124.835938 144.015625 124.691406 143.550781 124.695312 143.042969 C 124.699219 142.53125 124.851562 142.070312 125.152344 141.660156 C 129.902344 135.050781 139.921875 138.269531 145.375 141.894531 C 150.53125 145.320312 155.5 149.355469 160.289062 154.011719 C 160.480469 154.191406 160.515625 154.398438 160.394531 154.640625 Z M 160.394531 154.640625 " fill-opacity="1" fill-rule="nonzero"/><path fill="#f0d7b0" d="M 92.347656 99.285156 C 85.917969 100.644531 81.769531 104.296875 79.90625 110.238281 C 79.8125 110.546875 79.632812 110.796875 79.367188 110.992188 C 79.105469 111.183594 78.808594 111.28125 78.480469 111.28125 L 75.894531 111.28125 C 75.777344 111.28125 75.660156 111.253906 75.554688 111.203125 C 75.445312 111.148438 75.355469 111.078125 75.28125 110.984375 C 75.207031 110.890625 75.15625 110.785156 75.132812 110.667969 C 75.105469 110.550781 75.105469 110.433594 75.132812 110.316406 L 78.40625 96.488281 C 78.441406 96.347656 78.5 96.222656 78.589844 96.109375 C 78.675781 95.996094 78.78125 95.902344 78.910156 95.835938 C 79.035156 95.769531 79.167969 95.730469 79.3125 95.71875 C 79.453125 95.707031 79.59375 95.726562 79.730469 95.777344 C 82.675781 96.84375 86.875 97.789062 92.332031 98.613281 C 92.527344 98.640625 92.625 98.75 92.628906 98.945312 C 92.632812 99.136719 92.539062 99.25 92.347656 99.285156 Z M 92.347656 99.285156 " fill-opacity="1" fill-rule="nonzero"/><path fill="#f0d7b0" d="M 146.277344 98.921875 L 162.460938 96.472656 C 162.625 96.445312 162.773438 96.484375 162.90625 96.582031 C 163.039062 96.679688 163.117188 96.808594 163.144531 96.972656 L 165.273438 110.988281 C 165.292969 111.109375 165.265625 111.210938 165.1875 111.304688 C 165.113281 111.394531 165.011719 111.441406 164.894531 111.441406 L 158.683594 111.546875 C 158.511719 111.550781 158.351562 111.5 158.210938 111.398438 C 158.070312 111.296875 157.972656 111.164062 157.921875 110.996094 C 156.144531 105.050781 152.25 101.167969 146.242188 99.351562 C 146.125 99.320312 146.070312 99.246094 146.078125 99.121094 C 146.089844 99 146.152344 98.933594 146.277344 98.921875 Z M 146.277344 98.921875 " fill-opacity="1" fill-rule="nonzero"/><path fill="#f0d7b0" d="M 101.980469 99.730469 C 101.894531 99.714844 101.867188 99.664062 101.886719 99.585938 C 101.910156 99.503906 101.960938 99.472656 102.042969 99.488281 C 112.1875 100.667969 122.546875 100.894531 133.121094 100.167969 C 133.253906 100.152344 133.335938 100.210938 133.367188 100.339844 C 133.398438 100.46875 133.351562 100.558594 133.226562 100.605469 C 128.679688 102.644531 125.78125 106.167969 124.527344 111.175781 C 124.472656 111.378906 124.339844 111.484375 124.125 111.484375 L 113.636719 111.484375 C 113.46875 111.484375 113.320312 111.433594 113.1875 111.335938 C 113.054688 111.242188 112.957031 111.113281 112.90625 110.957031 C 111.078125 105.570312 107.4375 101.828125 101.980469 99.730469 Z M 101.980469 99.730469 " fill-opacity="1" fill-rule="nonzero"/><path fill="#f0d7b0" d="M 64.402344 117.523438 C 64.484375 117.460938 64.570312 117.457031 64.664062 117.503906 C 64.753906 117.554688 64.796875 117.632812 64.789062 117.734375 L 64.335938 127.34375 C 64.332031 127.410156 64.304688 127.464844 64.25 127.503906 C 64.195312 127.542969 64.136719 127.550781 64.078125 127.53125 C 63.433594 127.335938 62.972656 127.035156 62.699219 126.632812 C 60.34375 123.144531 60.910156 120.109375 64.402344 117.523438 Z M 64.402344 117.523438 " fill-opacity="1" fill-rule="nonzero"/><path fill="#f0d7b0" d="M 80.484375 142.121094 C 78.582031 137.703125 76.328125 133.878906 73.722656 130.644531 C 73.453125 128.21875 73.324219 125.898438 73.332031 123.6875 C 73.34375 122.28125 73.476562 120.921875 73.730469 119.613281 C 73.757812 119.476562 73.828125 119.367188 73.933594 119.28125 C 74.042969 119.195312 74.167969 119.152344 74.304688 119.160156 L 78.8125 119.367188 C 79.210938 119.390625 79.480469 119.585938 79.613281 119.953125 C 82.21875 126.863281 87.203125 130.785156 94.5625 131.71875 C 94.652344 131.726562 94.707031 131.777344 94.722656 131.867188 C 94.738281 131.960938 94.707031 132.027344 94.628906 132.074219 C 89.5 134.953125 84.785156 138.304688 80.484375 142.121094 Z M 80.484375 142.121094 " fill-opacity="1" fill-rule="nonzero"/><path fill="#f0d7b0" d="M 132.1875 129.542969 C 129.929688 129.742188 128.757812 129.847656 128.679688 129.859375 C 125.402344 130.394531 122.617188 131.578125 120.320312 133.410156 C 120.207031 133.503906 120.078125 133.550781 119.929688 133.550781 C 119.78125 133.550781 119.652344 133.507812 119.535156 133.417969 C 115.726562 130.488281 111.210938 129.113281 105.992188 129.292969 C 105.859375 129.296875 105.769531 129.234375 105.726562 129.109375 C 105.6875 128.984375 105.71875 128.882812 105.828125 128.808594 C 108.980469 126.730469 111.15625 123.988281 112.363281 120.582031 C 112.460938 120.308594 112.625 120.089844 112.863281 119.925781 C 113.097656 119.757812 113.363281 119.675781 113.648438 119.675781 L 124.261719 119.675781 C 124.417969 119.675781 124.558594 119.722656 124.6875 119.8125 C 124.8125 119.90625 124.902344 120.027344 124.949219 120.175781 C 126.132812 123.871094 128.574219 126.871094 132.277344 129.179688 C 132.363281 129.226562 132.394531 129.300781 132.371094 129.394531 C 132.347656 129.492188 132.285156 129.539062 132.1875 129.542969 Z M 132.1875 129.542969 " fill-opacity="1" fill-rule="nonzero"/><path fill="#f0d7b0" d="M 165.257812 131.023438 C 163.097656 134.421875 161.347656 138.179688 160.015625 142.300781 C 154.496094 137.625 150.554688 134.324219 145.253906 131.703125 C 145.207031 131.679688 145.1875 131.644531 145.191406 131.59375 C 145.195312 131.542969 145.222656 131.507812 145.269531 131.492188 C 151.425781 129.777344 155.484375 126.128906 157.453125 120.542969 C 157.546875 120.28125 157.703125 120.070312 157.929688 119.910156 C 158.152344 119.746094 158.402344 119.664062 158.675781 119.660156 L 164.707031 119.554688 C 164.855469 119.550781 164.976562 119.605469 165.074219 119.710938 C 165.175781 119.816406 165.214844 119.945312 165.203125 120.089844 C 165.066406 121.316406 164.898438 123.738281 164.699219 127.34375 C 164.617188 128.773438 164.804688 130 165.257812 131.023438 Z M 165.257812 131.023438 " fill-opacity="1" fill-rule="nonzero"/><path fill="#3448a7" d="M 132.699219 114.324219 C 132.742188 113.792969 132.839844 113.269531 132.996094 112.757812 C 133.148438 112.246094 133.355469 111.753906 133.609375 111.28125 C 133.867188 110.808594 134.171875 110.363281 134.519531 109.949219 C 134.871094 109.53125 135.261719 109.152344 135.691406 108.8125 C 136.121094 108.46875 136.582031 108.171875 137.074219 107.914062 C 137.566406 107.660156 138.082031 107.449219 138.621094 107.289062 C 139.15625 107.132812 139.707031 107.023438 140.269531 106.964844 C 140.828125 106.90625 141.390625 106.902344 141.957031 106.949219 C 142.519531 106.996094 143.070312 107.097656 143.617188 107.246094 C 144.160156 107.394531 144.683594 107.59375 145.1875 107.839844 C 145.6875 108.089844 146.164062 108.378906 146.605469 108.714844 C 147.050781 109.046875 147.453125 109.417969 147.820312 109.828125 C 148.1875 110.238281 148.507812 110.675781 148.785156 111.144531 C 149.058594 111.613281 149.285156 112.101562 149.460938 112.609375 C 149.632812 113.117188 149.753906 113.636719 149.820312 114.167969 C 149.886719 114.699219 149.898438 115.230469 149.851562 115.761719 C 149.808594 116.292969 149.707031 116.8125 149.554688 117.324219 C 149.402344 117.835938 149.195312 118.328125 148.9375 118.800781 C 148.679688 119.273438 148.378906 119.71875 148.027344 120.132812 C 147.679688 120.550781 147.289062 120.929688 146.859375 121.269531 C 146.429688 121.613281 145.96875 121.914062 145.472656 122.167969 C 144.980469 122.425781 144.464844 122.632812 143.929688 122.792969 C 143.390625 122.953125 142.839844 123.058594 142.28125 123.117188 C 141.71875 123.175781 141.15625 123.179688 140.59375 123.132812 C 140.03125 123.085938 139.476562 122.988281 138.933594 122.835938 C 138.390625 122.6875 137.867188 122.488281 137.363281 122.242188 C 136.859375 121.996094 136.386719 121.703125 135.941406 121.371094 C 135.5 121.035156 135.09375 120.664062 134.726562 120.253906 C 134.363281 119.847656 134.039062 119.40625 133.765625 118.9375 C 133.488281 118.472656 133.265625 117.984375 133.089844 117.472656 C 132.914062 116.964844 132.796875 116.445312 132.730469 115.914062 C 132.664062 115.386719 132.652344 114.855469 132.699219 114.324219 Z M 132.699219 114.324219 " fill-opacity="1" fill-rule="nonzero"/><path fill="#3448a7" d="M 87.835938 114.304688 C 87.882812 113.78125 87.980469 113.269531 88.136719 112.765625 C 88.289062 112.265625 88.496094 111.78125 88.75 111.316406 C 89.003906 110.851562 89.304688 110.417969 89.652344 110.011719 C 90 109.601562 90.386719 109.230469 90.8125 108.898438 C 91.238281 108.5625 91.691406 108.269531 92.179688 108.023438 C 92.667969 107.773438 93.175781 107.570312 93.707031 107.417969 C 94.234375 107.261719 94.777344 107.15625 95.332031 107.105469 C 95.882812 107.050781 96.4375 107.050781 96.992188 107.097656 C 97.546875 107.148438 98.089844 107.246094 98.625 107.398438 C 99.160156 107.546875 99.675781 107.746094 100.167969 107.992188 C 100.664062 108.238281 101.128906 108.527344 101.5625 108.859375 C 102 109.1875 102.394531 109.558594 102.753906 109.960938 C 103.113281 110.367188 103.425781 110.800781 103.695312 111.261719 C 103.964844 111.722656 104.183594 112.203125 104.355469 112.707031 C 104.523438 113.207031 104.636719 113.71875 104.699219 114.242188 C 104.761719 114.765625 104.769531 115.285156 104.726562 115.808594 C 104.679688 116.332031 104.578125 116.84375 104.421875 117.347656 C 104.269531 117.851562 104.066406 118.335938 103.808594 118.796875 C 103.554688 119.261719 103.253906 119.699219 102.90625 120.105469 C 102.558594 120.511719 102.171875 120.882812 101.746094 121.21875 C 101.324219 121.550781 100.867188 121.84375 100.378906 122.09375 C 99.890625 122.34375 99.382812 122.542969 98.851562 122.699219 C 98.324219 122.851562 97.78125 122.957031 97.230469 123.011719 C 96.675781 123.0625 96.121094 123.066406 95.566406 123.015625 C 95.011719 122.96875 94.46875 122.867188 93.933594 122.71875 C 93.398438 122.566406 92.882812 122.367188 92.390625 122.125 C 91.894531 121.878906 91.429688 121.589844 90.996094 121.257812 C 90.5625 120.925781 90.164062 120.558594 89.804688 120.152344 C 89.445312 119.75 89.132812 119.316406 88.863281 118.855469 C 88.59375 118.390625 88.375 117.910156 88.207031 117.410156 C 88.035156 116.90625 87.921875 116.394531 87.859375 115.871094 C 87.796875 115.351562 87.789062 114.828125 87.835938 114.304688 Z M 87.835938 114.304688 " fill-opacity="1" fill-rule="nonzero"/><path fill="#e8c89a" d="M 173.980469 118.050781 C 173.980469 118.027344 173.992188 118.019531 174.011719 118.019531 L 174.050781 118.027344 C 174.402344 118.039062 174.734375 118.171875 175.046875 118.425781 C 175.359375 118.675781 175.628906 119.027344 175.855469 119.480469 C 176.085938 119.929688 176.253906 120.449219 176.363281 121.027344 C 176.46875 121.609375 176.511719 122.214844 176.484375 122.839844 L 176.46875 123.113281 C 176.441406 123.738281 176.347656 124.335938 176.1875 124.90625 C 176.03125 125.476562 175.820312 125.976562 175.550781 126.40625 C 175.285156 126.839844 174.988281 127.167969 174.652344 127.390625 C 174.320312 127.617188 173.980469 127.722656 173.632812 127.707031 L 173.589844 127.699219 C 173.570312 127.699219 173.558594 127.6875 173.558594 127.667969 Z M 173.980469 118.050781 " fill-opacity="1" fill-rule="nonzero"/></svg>