<svg xmlns="http://www.w3.org/2000/svg" viewBox="0 0 79.06 80.43" fill="#c8a05a"><path d="M47.55,2.3l3.52,9.38Q61,38.23,71,64.75a66.75,66.75,0,0,0,7.5,14.57c.17.25.28.54.53,1-.59,0-1,.08-1.41.08l-35.14,0c-1.11,0-1.42-.48-1.2-1.7a31.83,31.83,0,0,0,.81-5.07,12.86,12.86,0,0,0-.66-4.57C38.79,61.49,36,53.93,33.2,46.37a4.12,4.12,0,0,1,0-3.07Q40.13,23.47,47,3.63C47.14,3.3,47.28,3,47.55,2.3ZM35,44.68l-.18.13a3.5,3.5,0,0,0,.13.56c2.62,7,5.2,14,7.89,21A18.53,18.53,0,0,1,44,75.51c0,.4-.07.81-.09,1,2.89-1.16,5.66-2.61,8.6-3.36s6-.82,9.09-1.19Z"/><path d="M23.71,80.37H0a2.9,2.9,0,0,1,.15-.73C6.57,67.59,11,54.72,15.5,41.92c3.08-8.7,6.13-17.42,9.31-26.08,1.57-4.28,1.1-8.4-.31-12.55-.35-1-.76-2.08-1.21-3.29H46c-.45,1.33-.89,2.63-1.34,3.93q-6.43,18.48-12.88,37c-2.64,7.51-5.28,15-8,22.49-2,5.38-2.43,10.71-.22,16.11A7.36,7.36,0,0,1,23.71,80.37Z"/></svg>
